<svg xmlns="http://www.w3.org/2000/svg" viewBox="0 0 640 400" width="640" height="400" role="img" aria-label="Генеральне прибирання: техніка всередині">
<defs><linearGradient id="bg" x1="0" y1="0" x2="1" y2="1"><stop offset="0" stop-color="#F6F7F2"/><stop offset="1" stop-color="#E9EFE9"/></linearGradient><linearGradient id="light" x1="0" y1="0" x2="0" y2="1"><stop offset="0" stop-color="#FFFFFF" stop-opacity=".9"/><stop offset="1" stop-color="#FFFFFF" stop-opacity="0"/></linearGradient></defs>
<rect width="640" height="400" fill="url(#bg)"/>
<rect x="0" y="0" width="640" height="300" rx="0" fill="#EEF0EA" /><rect x="0" y="300" width="640" height="100" rx="0" fill="#E3DDD0" /><rect x="0" y="300" width="640" height="3" fill="#D8D1C2"/><rect x="70" y="60" width="150" height="240" rx="14" fill="#FFFFFF" /><rect x="84" y="74" width="122" height="212" rx="8" fill="#DCEAF0" /><rect x="90" y="120" width="110" height="6" rx="3" fill="#FFFFFF" /><rect x="90" y="170" width="110" height="6" rx="3" fill="#FFFFFF" /><rect x="90" y="220" width="110" height="6" rx="3" fill="#FFFFFF" /><rect x="200" y="60" width="12" height="240" rx="6" fill="#FFFFFF" /><rect x="270" y="150" width="180" height="150" rx="14" fill="#FFFFFF" /><rect x="284" y="166" width="152" height="100" rx="8" fill="#12150F" opacity='.75'/><rect x="300" y="180" width="120" height="72" rx="6" fill="#C9DEE8" opacity='.5'/><rect x="284" y="276" width="152" height="10" rx="4" fill="#D9CDB6" /><circle cx="300" cy="281" r="4" fill="#FFFFFF"/><circle cx="326" cy="281" r="4" fill="#FFFFFF"/><circle cx="352" cy="281" r="4" fill="#FFFFFF"/><g transform="translate(520 140) rotate(-30)"><rect x="-16" y="0" width="32" height="70" rx="14" fill="#1F6B41" /><rect x="-14" y="-6" width="28" height="22" rx="10" fill="#2F8F5B" /><rect x="-20" y="60" width="40" height="22" rx="8" fill="#E8DFCF" /></g><rect x="492" y="116" width="46" height="30" rx="8" fill="#2F8F5B" /><rect x="492" y="116" width="46" height="12" rx="8" fill="#B9D1C1" /><path d="M360 104 Q360 120 376 120 Q360 120 360 136 Q360 120 344 120 Q360 120 360 104Z" fill="#2F8F5B" opacity="1"/><path d="M150 31 Q150 40 159 40 Q150 40 150 49 Q150 40 141 40 Q150 40 150 31Z" fill="#2F8F5B" opacity="0.7"/><path d="M470 83 Q470 90 477 90 Q470 90 470 97 Q470 90 463 90 Q470 90 470 83Z" fill="#2F8F5B" opacity="0.5"/></svg>